<mxfile host="app.diagrams.net" modified="2023-02-15T06:36:36.520Z" agent="5.0 (Windows NT 10.0; Win64; x64) AppleWebKit/537.36 (KHTML, like Gecko) Chrome/110.0.0.0 Safari/537.36 Edg/110.0.1587.41" etag="fnPZGK-GDbxKTLgrjmfh" version="20.8.20" type="github">
  <diagram name="第 1 页" id="7BWOVIeHfHWRDhxYybXX">
    <mxGraphModel dx="1434" dy="796" grid="1" gridSize="10" guides="1" tooltips="1" connect="1" arrows="1" fold="1" page="1" pageScale="1" pageWidth="827" pageHeight="1169" math="0" shadow="0">
      <root>
        <mxCell id="0" />
        <mxCell id="1" parent="0" />
        <mxCell id="fFmbdHrcv6SZb14ruAzG-1" value="" style="shape=curlyBracket;whiteSpace=wrap;html=1;rounded=1;labelPosition=left;verticalLabelPosition=middle;align=right;verticalAlign=middle;" vertex="1" parent="1">
          <mxGeometry x="140" y="120" width="20" height="310" as="geometry" />
        </mxCell>
        <mxCell id="fFmbdHrcv6SZb14ruAzG-2" value="Rx在op前" style="text;html=1;align=center;verticalAlign=middle;resizable=0;points=[];autosize=1;strokeColor=none;fillColor=none;" vertex="1" parent="1">
          <mxGeometry x="150" y="110" width="80" height="30" as="geometry" />
        </mxCell>
        <mxCell id="fFmbdHrcv6SZb14ruAzG-3" value="Rx在op后" style="text;html=1;strokeColor=none;fillColor=none;align=center;verticalAlign=middle;whiteSpace=wrap;rounded=0;" vertex="1" parent="1">
          <mxGeometry x="160" y="420" width="60" height="30" as="geometry" />
        </mxCell>
        <mxCell id="fFmbdHrcv6SZb14ruAzG-4" value="" style="shape=curlyBracket;whiteSpace=wrap;html=1;rounded=1;labelPosition=left;verticalLabelPosition=middle;align=right;verticalAlign=middle;" vertex="1" parent="1">
          <mxGeometry x="220" y="65" width="20" height="120" as="geometry" />
        </mxCell>
        <mxCell id="fFmbdHrcv6SZb14ruAzG-5" value="在同一个March元素内" style="text;html=1;strokeColor=none;fillColor=none;align=center;verticalAlign=middle;whiteSpace=wrap;rounded=0;" vertex="1" parent="1">
          <mxGeometry x="240" y="50" width="90" height="30" as="geometry" />
        </mxCell>
        <mxCell id="fFmbdHrcv6SZb14ruAzG-6" value="不在同一个March元素内" style="text;html=1;strokeColor=none;fillColor=none;align=center;verticalAlign=middle;whiteSpace=wrap;rounded=0;" vertex="1" parent="1">
          <mxGeometry x="240" y="170" width="90" height="30" as="geometry" />
        </mxCell>
        <mxCell id="fFmbdHrcv6SZb14ruAzG-13" value="" style="shape=curlyBracket;whiteSpace=wrap;html=1;rounded=1;labelPosition=left;verticalLabelPosition=middle;align=right;verticalAlign=middle;" vertex="1" parent="1">
          <mxGeometry x="220" y="375" width="20" height="120" as="geometry" />
        </mxCell>
        <mxCell id="fFmbdHrcv6SZb14ruAzG-14" value="在同一个March元素内" style="text;html=1;strokeColor=none;fillColor=none;align=center;verticalAlign=middle;whiteSpace=wrap;rounded=0;" vertex="1" parent="1">
          <mxGeometry x="240" y="360" width="90" height="30" as="geometry" />
        </mxCell>
        <mxCell id="fFmbdHrcv6SZb14ruAzG-15" value="不在同一个March元素内" style="text;html=1;strokeColor=none;fillColor=none;align=center;verticalAlign=middle;whiteSpace=wrap;rounded=0;" vertex="1" parent="1">
          <mxGeometry x="240" y="480" width="90" height="30" as="geometry" />
        </mxCell>
      </root>
    </mxGraphModel>
  </diagram>
</mxfile>
